<svg id="visual" viewBox="0 0 900 600" width="900" height="600" xmlns="http://www.w3.org/2000/svg" xmlns:xlink="http://www.w3.org/1999/xlink" version="1.1"><rect x="0" y="0" width="900" height="600" fill="#001220"></rect><defs><linearGradient id="grad1_0" x1="33.3%" y1="0%" x2="100%" y2="100%"><stop offset="20%" stop-color="#ff9027" stop-opacity="1"></stop><stop offset="80%" stop-color="#ff9027" stop-opacity="1"></stop></linearGradient></defs><defs><linearGradient id="grad1_1" x1="33.3%" y1="0%" x2="100%" y2="100%"><stop offset="20%" stop-color="#ff9027" stop-opacity="1"></stop><stop offset="80%" stop-color="#c74467" stop-opacity="1"></stop></linearGradient></defs><defs><linearGradient id="grad1_2" x1="33.3%" y1="0%" x2="100%" y2="100%"><stop offset="20%" stop-color="#523262" stop-opacity="1"></stop><stop offset="80%" stop-color="#c74467" stop-opacity="1"></stop></linearGradient></defs><defs><linearGradient id="grad1_3" x1="33.3%" y1="0%" x2="100%" y2="100%"><stop offset="20%" stop-color="#523262" stop-opacity="1"></stop><stop offset="80%" stop-color="#001220" stop-opacity="1"></stop></linearGradient></defs><defs><linearGradient id="grad2_0" x1="0%" y1="0%" x2="66.7%" y2="100%"><stop offset="20%" stop-color="#ff9027" stop-opacity="1"></stop><stop offset="80%" stop-color="#ff9027" stop-opacity="1"></stop></linearGradient></defs><defs><linearGradient id="grad2_1" x1="0%" y1="0%" x2="66.7%" y2="100%"><stop offset="20%" stop-color="#c74467" stop-opacity="1"></stop><stop offset="80%" stop-color="#ff9027" stop-opacity="1"></stop></linearGradient></defs><defs><linearGradient id="grad2_2" x1="0%" y1="0%" x2="66.7%" y2="100%"><stop offset="20%" stop-color="#c74467" stop-opacity="1"></stop><stop offset="80%" stop-color="#523262" stop-opacity="1"></stop></linearGradient></defs><defs><linearGradient id="grad2_3" x1="0%" y1="0%" x2="66.7%" y2="100%"><stop offset="20%" stop-color="#001220" stop-opacity="1"></stop><stop offset="80%" stop-color="#523262" stop-opacity="1"></stop></linearGradient></defs><g transform="translate(900, 0)"><path d="M0 432.7C-42.3 437.5 -84.6 442.4 -112 417.9C-139.4 393.5 -151.8 339.8 -185.5 321.3C-219.2 302.8 -274.1 319.6 -303.3 303.3C-332.6 287.1 -336.4 237.9 -346.4 200C-356.5 162.1 -372.9 135.5 -388.3 104C-403.7 72.6 -418.2 36.3 -432.7 0L0 0Z" fill="#1e2545"></path><path d="M0 324.5C-31.7 328.1 -63.5 331.8 -84 313.4C-104.5 295.1 -113.9 254.8 -139.1 241C-164.4 227.1 -205.5 239.7 -227.5 227.5C-249.5 215.3 -252.3 178.4 -259.8 150C-267.3 121.6 -279.7 101.6 -291.2 78C-302.8 54.4 -313.7 27.2 -324.5 0L0 0Z" fill="#8e396e"></path><path d="M0 216.3C-21.2 218.8 -42.3 221.2 -56 209C-69.7 196.7 -75.9 169.9 -92.7 160.6C-109.6 151.4 -137 159.8 -151.7 151.7C-166.3 143.6 -168.2 119 -173.2 100C-178.2 81 -186.4 67.7 -194.2 52C-201.9 36.3 -209.1 18.1 -216.3 0L0 0Z" fill="#ef624e"></path><path d="M0 108.2C-10.6 109.4 -21.2 110.6 -28 104.5C-34.8 98.4 -38 84.9 -46.4 80.3C-54.8 75.7 -68.5 79.9 -75.8 75.8C-83.2 71.8 -84.1 59.5 -86.6 50C-89.1 40.5 -93.2 33.9 -97.1 26C-100.9 18.1 -104.6 9.1 -108.2 0L0 0Z" fill="#ff9027"></path></g><g transform="translate(0, 600)"><path d="M0 -432.7C38.2 -430.8 76.4 -429 112 -417.9C147.6 -406.8 180.6 -386.4 210 -363.7C239.4 -341.1 265.2 -316.1 287.8 -287.8C310.4 -259.5 329.7 -227.8 337.7 -195C345.8 -162.2 342.5 -128.2 356.4 -95.5C370.4 -62.8 401.5 -31.4 432.7 0L0 0Z" fill="#1e2545"></path><path d="M0 -324.5C28.6 -323.1 57.3 -321.8 84 -313.4C110.7 -305.1 135.4 -289.8 157.5 -272.8C179.6 -255.8 198.9 -237.1 215.8 -215.8C232.8 -194.6 247.3 -170.9 253.3 -146.3C259.3 -121.6 256.9 -96.1 267.3 -71.6C277.8 -47.1 301.1 -23.6 324.5 0L0 0Z" fill="#8e396e"></path><path d="M0 -216.3C19.1 -215.4 38.2 -214.5 56 -209C73.8 -203.4 90.3 -193.2 105 -181.9C119.7 -170.5 132.6 -158.1 143.9 -143.9C155.2 -129.7 164.9 -113.9 168.9 -97.5C172.9 -81.1 171.2 -64.1 178.2 -47.8C185.2 -31.4 200.8 -15.7 216.3 0L0 0Z" fill="#ef624e"></path><path d="M0 -108.2C9.5 -107.7 19.1 -107.3 28 -104.5C36.9 -101.7 45.1 -96.6 52.5 -90.9C59.9 -85.3 66.3 -79 71.9 -71.9C77.6 -64.9 82.4 -57 84.4 -48.8C86.4 -40.5 85.6 -32 89.1 -23.9C92.6 -15.7 100.4 -7.9 108.2 0L0 0Z" fill="#ff9027"></path></g></svg>